<?xml version="1.0"?>
<svg xmlns="http://www.w3.org/2000/svg" x="0px" y="0px"
width="480" height="480"
viewBox="0 0 172 172"
style=" fill:#000000;"><g fill="none" fill-rule="nonzero" stroke="none" stroke-width="1" stroke-linecap="butt" stroke-linejoin="miter" stroke-miterlimit="10" stroke-dasharray="" stroke-dashoffset="0" font-family="none" font-weight="none" font-size="none" text-anchor="none" style="mix-blend-mode: normal"><path d="M0,172v-172h172v172z" fill="none"></path><g fill="#ffffff"><path d="M41.28,0c-3.7625,0 -6.88,3.1175 -6.88,6.88v6.88h-20.64c-3.99094,0 -6.88,2.88906 -6.88,6.88v24.08h158.24v-24.08c0,-3.99094 -2.88906,-6.88 -6.88,-6.88h-20.64v-6.88c0,-3.7625 -3.1175,-6.88 -6.88,-6.88h-6.88c-3.7625,0 -6.88,3.1175 -6.88,6.88v6.88h-61.92v-6.88c0,-3.7625 -3.1175,-6.88 -6.88,-6.88zM41.28,6.88h6.88v20.64h-6.88zM123.84,6.88h6.88v20.64h-6.88zM6.88,51.6v106.64c0,3.99094 2.88906,6.88 6.88,6.88h144.48c3.99094,0 6.88,-2.88906 6.88,-6.88v-106.64zM41.28,72.24h17.2v17.2h-17.2zM65.36,72.24h17.2v17.2h-17.2zM89.44,72.24h17.2v17.2h-17.2zM113.52,72.24h17.2v17.2h-17.2zM41.28,96.32h17.2v17.2h-17.2zM65.36,96.32h17.2v17.2h-17.2zM89.44,96.32h17.2v17.2h-17.2zM113.52,96.32h17.2v17.2h-17.2zM41.28,120.4h17.2v17.2h-17.2zM65.36,120.4h17.2v17.2h-17.2zM89.44,120.4h17.2v17.2h-17.2zM113.52,120.4h17.2v17.2h-17.2z"></path></g></g></svg>
